<svg width="13" height="14" viewBox="0 0 13 14" fill="none" xmlns="http://www.w3.org/2000/svg">
<path d="M11.6179 1.16202H10.2221V0.642386C10.2221 0.367287 10.0305 0.15332 9.78421 0.15332H8.60737C8.36105 0.15332 8.16947 0.367287 8.16947 0.642386V1.16202H4.73474V0.642386C4.73474 0.367287 4.54316 0.15332 4.29684 0.15332H3.12C2.87368 0.15332 2.68211 0.367287 2.68211 0.642386V1.16202H1.38211C0.61579 1.16202 0 1.86505 0 2.70563V12.4564C0 13.3123 0.61579 14 1.38211 14H11.6179C12.3842 14 13 13.3123 13 12.4564V2.70563C13 1.86505 12.3842 1.16202 11.6179 1.16202ZM11.6179 13.19H1.38211C1.01263 13.19 0.711579 12.8538 0.711579 12.4411V4.52435H12.2747V12.4564C12.2884 12.869 11.9874 13.19 11.6179 13.19Z" fill="#737A9B"/>
</svg>
